<svg id="visual" viewBox="0 0 900 600" width="900" height="600" xmlns="http://www.w3.org/2000/svg" xmlns:xlink="http://www.w3.org/1999/xlink" version="1.1"><rect x="0" y="0" width="900" height="600" fill="#001220"></rect><defs><linearGradient id="grad1_0" x1="33.3%" y1="0%" x2="100%" y2="100%"><stop offset="20%" stop-color="#001220" stop-opacity="1"></stop><stop offset="80%" stop-color="#001220" stop-opacity="1"></stop></linearGradient></defs><defs><linearGradient id="grad2_0" x1="0%" y1="0%" x2="66.7%" y2="100%"><stop offset="20%" stop-color="#001220" stop-opacity="1"></stop><stop offset="80%" stop-color="#001220" stop-opacity="1"></stop></linearGradient></defs><g transform="translate(900, 0)"><path d="M0 486.7C-55.6 459.4 -111.2 432.1 -170.7 412.1C-230.1 392 -293.5 379.1 -342.9 342.9C-392.4 306.8 -428 247.3 -449.7 186.3C-471.4 125.2 -479.1 62.6 -486.7 0L0 0Z" fill="#715DF2"></path></g><g transform="translate(0, 600)"><path d="M0 -486.7C62.2 -479.7 124.4 -472.7 186.3 -449.7C248.2 -426.7 309.8 -387.9 333 -333C356.3 -278.2 341.1 -207.4 360.3 -149.2C379.5 -91.1 433.1 -45.5 486.7 0L0 0Z" fill="#715DF2"></path></g></svg>