<svg id="visual" viewBox="0 0 900 600" width="900" height="600" xmlns="http://www.w3.org/2000/svg" xmlns:xlink="http://www.w3.org/1999/xlink" version="1.1"><rect width="900" height="600" fill="#eff0f3"></rect><g><g transform="translate(135 83)"><path d="M99.1 -61.1C116.4 -27.3 110.1 16.3 89.6 50.7C69.2 85.1 34.6 110.3 -3.1 112.1C-40.8 113.9 -81.7 92.3 -98.4 60.1C-115.1 27.8 -107.8 -15.1 -87.4 -50.8C-66.9 -86.4 -33.5 -114.9 3.7 -117C40.9 -119.2 81.8 -95 99.1 -61.1Z" stroke="#ff8e3c" fill="none" stroke-width="30"></path></g><g transform="translate(242 441)"><path d="M71.1 -42.8C85.8 -15.5 87.1 17.7 73 46.1C58.9 74.4 29.4 97.9 1.1 97.3C-27.2 96.6 -54.5 71.9 -70 42.8C-85.4 13.6 -89.1 -20 -75.5 -46.7C-61.9 -73.4 -30.9 -93.1 -1.4 -92.3C28.2 -91.5 56.3 -70.2 71.1 -42.8Z" stroke="#ff8e3c" fill="none" stroke-width="30"></path></g><g transform="translate(704 572)"><path d="M64.1 -36.3C77 -14.7 77.2 15 64.4 37.6C51.6 60.1 25.8 75.4 1.6 74.5C-22.6 73.6 -45.3 56.4 -56.5 34.8C-67.7 13.2 -67.5 -12.8 -56.2 -33.6C-44.9 -54.4 -22.4 -69.9 1.6 -70.8C25.6 -71.7 51.2 -58 64.1 -36.3Z" stroke="#ff8e3c" fill="none" stroke-width="30"></path></g><g transform="translate(605 240)"><path d="M66.1 -39.5C79 -15.7 78.4 14.6 65.1 39.5C51.9 64.5 25.9 84.1 -1.3 84.8C-28.5 85.6 -57 67.4 -69.6 42.9C-82.2 18.3 -78.9 -12.7 -64.7 -37.2C-50.4 -61.7 -25.2 -79.8 0.7 -80.2C26.6 -80.6 53.1 -63.3 66.1 -39.5Z" stroke="#ff8e3c" fill="none" stroke-width="30"></path></g><g transform="translate(897 105)"><path d="M60.6 -34.1C72.1 -15.1 70.5 12.3 58.2 31.3C45.9 50.4 22.9 61 -1.2 61.7C-25.4 62.4 -50.8 53.2 -62.7 34.4C-74.5 15.6 -72.9 -12.8 -60.2 -32.4C-47.5 -52.1 -23.8 -63 0.4 -63.3C24.6 -63.5 49.2 -53 60.6 -34.1Z" stroke="#ff8e3c" fill="none" stroke-width="30"></path></g></g></svg>