<svg id="visual" viewBox="0 0 900 600" width="900" height="600" xmlns="http://www.w3.org/2000/svg" xmlns:xlink="http://www.w3.org/1999/xlink" version="1.1"><rect x="0" y="0" width="900" height="600" fill="#CCCCCC"></rect><defs><linearGradient id="grad1_0" x1="33.3%" y1="0%" x2="100%" y2="100%"><stop offset="20%" stop-color="#cccccc" stop-opacity="1"></stop><stop offset="80%" stop-color="#cccccc" stop-opacity="1"></stop></linearGradient></defs><defs><linearGradient id="grad2_0" x1="0%" y1="0%" x2="66.7%" y2="100%"><stop offset="20%" stop-color="#cccccc" stop-opacity="1"></stop><stop offset="80%" stop-color="#cccccc" stop-opacity="1"></stop></linearGradient></defs><g transform="translate(900, 0)"><path d="M0 459.7C-39.6 451.1 -79.2 442.4 -114.1 426C-149.1 409.5 -179.4 385.2 -212 367.2C-244.6 349.2 -279.5 337.4 -317.5 317.5C-355.4 297.6 -396.4 269.7 -398.1 229.9C-399.8 190 -362.4 138.4 -366.1 98.1C-369.8 57.8 -414.8 28.9 -459.7 0L0 0Z" fill="#ff8e3c"></path></g><g transform="translate(0, 600)"><path d="M0 -459.7C25.5 -406.9 50.9 -354.1 95 -354.5C139.1 -354.9 201.7 -408.5 229.9 -398.1C258 -387.7 251.6 -313.3 276.5 -276.5C301.4 -239.7 357.5 -240.5 373.3 -215.5C389 -190.5 364.2 -139.9 371.9 -99.6C379.5 -59.4 419.6 -29.7 459.7 0L0 0Z" fill="#ff8e3c"></path></g></svg>