<svg id="visual" viewBox="0 0 900 600" width="900" height="600" xmlns="http://www.w3.org/2000/svg" xmlns:xlink="http://www.w3.org/1999/xlink" version="1.1"><path d="M0 109L82 109L82 55L164 55L164 73L245 73L245 103L327 103L327 43L409 43L409 97L491 97L491 115L573 115L573 103L655 103L655 61L736 61L736 61L818 61L818 73L900 73L900 61L900 0L900 0L818 0L818 0L736 0L736 0L655 0L655 0L573 0L573 0L491 0L491 0L409 0L409 0L327 0L327 0L245 0L245 0L164 0L164 0L82 0L82 0L0 0Z" fill="#ffbd41"></path><path d="M0 235L82 235L82 199L164 199L164 151L245 151L245 175L327 175L327 187L409 187L409 199L491 199L491 247L573 247L573 163L655 163L655 115L736 115L736 163L818 163L818 223L900 223L900 205L900 59L900 71L818 71L818 59L736 59L736 59L655 59L655 101L573 101L573 113L491 113L491 95L409 95L409 41L327 41L327 101L245 101L245 71L164 71L164 53L82 53L82 107L0 107Z" fill="#ffad42"></path><path d="M0 301L82 301L82 253L164 253L164 241L245 241L245 217L327 217L327 235L409 235L409 295L491 295L491 301L573 301L573 205L655 205L655 199L736 199L736 223L818 223L818 259L900 259L900 283L900 203L900 221L818 221L818 161L736 161L736 113L655 113L655 161L573 161L573 245L491 245L491 197L409 197L409 185L327 185L327 173L245 173L245 149L164 149L164 197L82 197L82 233L0 233Z" fill="#ff9d46"></path><path d="M0 373L82 373L82 415L164 415L164 421L245 421L245 367L327 367L327 361L409 361L409 367L491 367L491 481L573 481L573 403L655 403L655 409L736 409L736 373L818 373L818 475L900 475L900 457L900 281L900 257L818 257L818 221L736 221L736 197L655 197L655 203L573 203L573 299L491 299L491 293L409 293L409 233L327 233L327 215L245 215L245 239L164 239L164 251L82 251L82 299L0 299Z" fill="#ff8e4b"></path><path d="M0 601L82 601L82 601L164 601L164 601L245 601L245 601L327 601L327 601L409 601L409 601L491 601L491 601L573 601L573 601L655 601L655 601L736 601L736 601L818 601L818 601L900 601L900 601L900 455L900 473L818 473L818 371L736 371L736 407L655 407L655 401L573 401L573 479L491 479L491 365L409 365L409 359L327 359L327 365L245 365L245 419L164 419L164 413L82 413L82 371L0 371Z" fill="#fd7f52"></path></svg>