<svg id="visual" viewBox="0 0 900 600" width="900" height="600" xmlns="http://www.w3.org/2000/svg" xmlns:xlink="http://www.w3.org/1999/xlink" version="1.1"><rect x="0" y="0" width="900" height="600" fill="#eff0f3"></rect><g fill="#ff8e3c"><path d="M31.8 18.4L31.8 82.1L-31.8 82.1L-31.8 18.4L-87 -13.5L-55.2 -68.6L0 -36.8L55.2 -68.6L87 -13.5Z" transform="translate(174 401)"></path><path d="M14 8.1L14 36.2L-14 36.2L-14 8.1L-38.3 -5.9L-24.3 -30.2L0 -16.2L24.3 -30.2L38.3 -5.9Z" transform="translate(429 141)"></path><path d="M15.4 8.9L15.4 39.6L-15.4 39.6L-15.4 8.9L-42 -6.5L-26.6 -33.1L0 -17.8L26.6 -33.1L42 -6.5Z" transform="translate(727 139)"></path><path d="M19.7 11.4L19.7 50.8L-19.7 50.8L-19.7 11.4L-53.8 -8.3L-34.1 -42.4L0 -22.7L34.1 -42.4L53.8 -8.3Z" transform="translate(568 549)"></path><path d="M17.3 10L17.3 44.5L-17.3 44.5L-17.3 10L-47.2 -7.3L-29.9 -37.2L0 -19.9L29.9 -37.2L47.2 -7.3Z" transform="translate(896 332)"></path><path d="M21.3 12.3L21.3 54.9L-21.3 54.9L-21.3 12.3L-58.2 -9L-36.9 -45.9L0 -24.6L36.9 -45.9L58.2 -9Z" transform="translate(58 72)"></path><path d="M25.1 14.5L25.1 64.7L-25.1 64.7L-25.1 14.5L-68.6 -10.6L-43.5 -54.1L0 -29L43.5 -54.1L68.6 -10.6Z" transform="translate(18 586)"></path></g></svg>