<svg id="visual" viewBox="0 0 900 600" width="900" height="600" xmlns="http://www.w3.org/2000/svg" xmlns:xlink="http://www.w3.org/1999/xlink" version="1.1"><rect x="0" y="0" width="900" height="600" fill="#002233"></rect><path d="M0 466L21.5 474C43 482 86 498 128.8 485.5C171.7 473 214.3 432 257.2 426.2C300 420.3 343 449.7 385.8 468.3C428.7 487 471.3 495 514.2 492.5C557 490 600 477 642.8 462.8C685.7 448.7 728.3 433.3 771.2 430.8C814 428.3 857 438.7 878.5 443.8L900 449L900 601L878.5 601C857 601 814 601 771.2 601C728.3 601 685.7 601 642.8 601C600 601 557 601 514.2 601C471.3 601 428.7 601 385.8 601C343 601 300 601 257.2 601C214.3 601 171.7 601 128.8 601C86 601 43 601 21.5 601L0 601Z" fill="#0066FF" stroke-linecap="round" stroke-linejoin="miter"></path></svg>